<svg width="64" height="64" viewBox="0 0 260 260" fill="none" xmlns="http://www.w3.org/2000/svg">
  <title>VAK-Build-s.-r.-o. Favicon</title>

  <rect width="260" height="260" rx="58" fill="#050607"/>

  <g
    stroke="#C7F43A"
    stroke-width="10"
    stroke-linecap="round"
    stroke-linejoin="round"
  >
    <path
      d="M214 177
      C196 207 165 226 130 226
      C77 226 34 183 34 130
      C34 77 77 34 130 34
      C180 34 221 72 226 121"
    />

    <path d="M130 34V70" />
    <path d="M130 116V226" />

    <path
      d="M118 36
      C93 57 77 92 77 130
      C77 170 93 205 118 224"
    />

    <path
      d="M142 36
      C163 54 178 84 183 119"
    />

    <path d="M35 130H145" />

    <path
      d="M39 115
      C61 88 94 75 130 75
      C170 75 204 91 224 119"
    />

    <path
      d="M39 145
      C59 169 92 184 130 184
      C151 184 171 180 188 172"
    />

    <path
      d="M175 114
      C181 98 204 98 210 114
      C214 125 226 122 234 129
      C247 140 241 160 225 164
      C215 167 219 180 211 188
      C199 200 180 196 174 181
      C169 170 156 178 147 169
      C136 158 141 139 156 135
      C168 132 169 123 175 114Z"
    />
  </g>
</svg>
